<?xml version="1.0" encoding="UTF-8"?>
<svg width="34px" height="34px" viewBox="0 0 34 34" version="1.1" xmlns="http://www.w3.org/2000/svg" xmlns:xlink="http://www.w3.org/1999/xlink">
    <!-- Generator: Sketch 52.6 (67491) - http://www.bohemiancoding.com/sketch -->
    <title>layers</title>
    <desc>Created with Sketch.</desc>
    <g id="Page-1" stroke="none" stroke-width="1" fill="none" fill-rule="evenodd">
        <g id="Homepage" transform="translate(-578.000000, -1385.000000)">
            <g id="service_item-copy" transform="translate(545.000000, 1342.000000)">
                <g id="layers" transform="translate(33.000000, 43.000000)">
                    <path d="M0.94,8.365 L16.56,16.8533333 C16.835,17 17.165,17 17.44,16.8533333 L33.06,8.365 C33.3513953,8.22110068 33.5279803,7.91639133 33.5079573,7.5920191 C33.4879343,7.26764686 33.2752144,6.98696868 32.9683333,6.88 L17.3483333,0.5 C17.1251604,0.408316817 16.8748396,0.408316817 16.6516667,0.5 L1.03166667,6.88 C0.724785637,6.98696868 0.512065676,7.26764686 0.492042699,7.5920191 C0.472019722,7.91639133 0.64860465,8.22110068 0.94,8.365 Z" id="Path" fill="#2FA0E1"></path>
                    <path d="M32.9683333,14.5433333 L29.6133333,13.1133333 L17.44,19.7316667 C17.165,19.8783333 16.835,19.8783333 16.56,19.7316667 L4.38666667,13.1133333 L1.03166667,14.5433333 C0.742078381,14.6953523 0.560689044,14.9954356 0.560689044,15.3225 C0.560689044,15.6495644 0.742078381,15.9496477 1.03166667,16.1016667 L16.6516667,25.085 C16.9217476,25.2501752 17.2615858,25.2501752 17.5316667,25.085 L33.1516667,16.1016667 C33.4274499,15.9181273 33.5767911,15.5952607 33.5380846,15.2662548 C33.499378,14.9372488 33.2791828,14.6578571 32.9683333,14.5433333 Z" id="Path" fill="#2B7BAD"></path>
                    <path d="M32.9683333,22.6833333 L30.1083333,21.4366667 L17.44,28.33 C17.165,28.4766667 16.835,28.4766667 16.56,28.33 L3.89166667,21.4366667 L1.03166667,22.6833333 C0.733815701,22.8377741 0.546850598,23.145323 0.546850598,23.4808333 C0.546850598,23.8163436 0.733815701,24.1238926 1.03166667,24.2783333 L16.6516667,33.445 C16.9266667,33.5916667 17.2566667,33.5916667 17.5316667,33.445 L33.1516667,24.2783333 C33.4357973,24.0922069 33.5906524,23.7617416 33.5518656,23.4242971 C33.5130789,23.0868525 33.2872838,22.8001401 32.9683333,22.6833333 Z" id="Path" fill="#265374"></path>
                </g>
            </g>
        </g>
    </g>
</svg>