<?xml version="1.0" encoding="UTF-8"?>
<svg width="21px" height="23px" viewBox="0 0 21 23" version="1.1" xmlns="http://www.w3.org/2000/svg" xmlns:xlink="http://www.w3.org/1999/xlink">
    <!-- Generator: Sketch 52.6 (67491) - http://www.bohemiancoding.com/sketch -->
    <title>nodejs</title>
    <desc>Created with Sketch.</desc>
    <g id="Page-1" stroke="none" stroke-width="1" fill="none" fill-rule="evenodd" opacity="0.300874256">
        <g id="Homepage" transform="translate(-840.000000, -1637.000000)" fill="#2FA0E1">
            <g id="service_item-copy" transform="translate(545.000000, 1342.000000)">
                <g id="Group-2" transform="translate(181.000000, 295.000000)">
                    <g id="nodejs" transform="translate(114.000000, 0.000000)">
                        <path d="M9.24572767,0.245377604 C9.80110539,-0.0810548816 10.5244845,-0.0825293572 11.0793836,0.245377604 C13.8710301,1.86517082 16.6635542,3.48242466 19.4547221,5.10320087 C19.9797064,5.40686089 20.330866,6.00680858 20.3255212,6.62797232 L20.3255212,16.3732722 C20.3294301,17.0201573 19.9435694,17.6344402 19.3897074,17.9312194 C16.6072346,19.5420838 13.8261979,21.1549142 11.0442038,22.7657787 C10.4773388,23.0986006 9.73944107,23.0729611 9.19028562,22.7128614 C8.35610223,22.2162908 7.52048291,21.7221777 6.68621973,21.2260986 C6.51574543,21.1217385 6.32357292,21.0386764 6.20319589,20.8689479 C6.30961269,20.7216642 6.49987066,20.7033152 6.65447019,20.6390116 C7.00267814,20.5253132 7.32248701,20.3428059 7.64237564,20.165705 C7.72326517,20.1088558 7.82202382,20.1306453 7.89956291,20.1815147 C8.61289064,20.6014944 9.31991631,21.0336796 10.0356372,21.4496455 C10.1883222,21.5401619 10.3429217,21.4199921 10.4734299,21.3452854 C13.2038908,19.7606338 15.9377022,18.1819621 18.6676844,16.596819 C18.7688362,16.5468507 18.8247569,16.4365927 18.8165403,16.3228124 C18.8184549,13.1080463 18.817019,9.89270676 18.8174976,6.67794067 C18.8290646,6.54884215 18.7563119,6.43014687 18.6426358,6.37731151 C15.8698156,4.77381944 13.0984313,3.1678699 10.3260897,1.56396825 C10.2277724,1.49456084 10.0980151,1.49436556 9.99950017,1.56347676 C7.22715861,3.1678699 4.45625295,4.7752939 1.68391137,6.37870406 C1.5706341,6.43162134 1.49461069,6.54835065 1.50809228,6.67794067 C1.50857092,9.89270676 1.50809228,13.1080463 1.50809228,16.3233039 C1.49824647,16.4370072 1.55841061,16.5449752 1.65886274,16.5938701 C2.39867501,17.0246627 3.13944455,17.4524244 3.87973544,17.8817425 C4.29678727,18.1122522 4.8088484,18.2492145 5.2683393,18.0726052 C5.67382406,17.9232736 5.9580543,17.4983789 5.95031635,17.056282 C5.95414544,13.8602745 5.9484018,10.6637755 5.95318815,7.4682595 C5.94305701,7.32638222 6.0741236,7.20916141 6.20846088,7.22251359 C6.56392816,7.22005615 6.91987406,7.21759869 7.27534132,7.22349659 C7.4237186,7.22005615 7.5258277,7.37282819 7.50747996,7.51577039 C7.50604406,10.732011 7.51130905,13.9483334 7.50508678,17.164574 C7.50604406,18.0217358 7.16310111,18.9544234 6.39098087,19.3738298 C5.43977089,19.8798206 4.26408044,19.7725116 3.32435772,19.2873272 C2.51083545,18.8703783 1.73448728,18.3783131 0.935403879,17.9316289 C0.380105929,17.6364881 -0.00384020315,17.0197478 6.86604107e-05,16.3733541 L6.86604107e-05,6.62797232 C-0.00575474849,5.99394787 0.359365021,5.38310546 0.900702743,5.08386885 C3.68269681,3.47169376 6.46421225,1.85828994 9.24572767,0.245377604 Z" id="Shape"></path>
                        <path d="M11.8903612,6.98442513 C13.0928318,6.90632153 14.3801316,6.93815333 15.462197,7.53593694 C16.2999736,7.99402762 16.7644388,8.95544366 16.7792226,9.89468112 C16.7558215,10.0213701 16.6245853,10.0912565 16.5047336,10.0825605 C16.1558511,10.0820819 15.8068895,10.0873473 15.458007,10.0801672 C15.3100106,10.0859112 15.2239956,9.94821279 15.205417,9.81617866 C15.1051716,9.36678387 14.8623057,8.92169717 14.4431407,8.70493779 C13.7996885,8.3798386 13.0536191,8.39619329 12.3519803,8.40297448 C11.8397641,8.43041843 11.2889677,8.47517443 10.8550189,8.77913219 C10.5218689,9.00937422 10.4206748,9.47416632 10.5395779,9.84848911 C10.651682,10.1172644 10.9591382,10.2039841 11.2107004,10.2839226 C12.6598317,10.6663828 14.1954523,10.6283283 15.6169134,11.1316536 C16.2054204,11.336845 16.78112,11.7357398 16.9825595,12.3575368 C17.2460595,13.1909077 17.1305559,14.1870275 16.5429976,14.8560537 C16.0665156,15.4066082 15.3725454,15.7062579 14.6803935,15.8690069 C13.7596061,16.0761928 12.8040333,16.0814583 11.8689365,15.9894731 C10.9896545,15.8883134 10.0746384,15.6551994 9.39584728,15.0506345 C8.81540418,14.5420438 8.53190257,13.7495996 8.56004719,12.9847589 C8.5667671,12.8555968 8.69420844,12.7655263 8.81682724,12.7761369 C9.16816055,12.7732649 9.51949385,12.7723075 9.87082715,12.7766156 C10.0111549,12.7664837 10.1151951,12.8888646 10.1223894,13.0223347 C10.1872169,13.4505083 10.3466766,13.8999031 10.7166676,14.1537597 C11.4307186,14.6186316 12.3266817,14.5867998 13.1442985,14.5998037 C13.8216666,14.5694877 14.5820455,14.5603132 15.1348183,14.108525 C15.4264629,13.850839 15.5128732,13.4197137 15.4340524,13.0488214 C15.3486699,12.735689 15.0240582,12.5897733 14.7453,12.4943577 C13.3147473,12.0377031 11.7619712,12.2034039 10.3452536,11.6869948 C9.77010739,11.4818832 9.21393507,11.0940777 8.99296825,10.4978099 C8.68464244,9.65390828 8.82591889,8.61008061 9.4750633,7.96363186 C10.1080009,7.32061358 11.021673,7.07297976 11.8903612,6.98434534 L11.8903612,6.98442513 Z" id="Shape"></path>
                    </g>
                </g>
            </g>
        </g>
    </g>
</svg>