<svg xmlns="http://www.w3.org/2000/svg" viewBox="0 0 60.86 63.2"><defs><style>.cls-1{fill:#2f9fdf;}.cls-2{fill:none;stroke-dasharray:2 4;}.cls-2,.cls-3,.cls-4{stroke:#000;}.cls-2,.cls-4{stroke-linecap:round;stroke-linejoin:round;}.cls-3{stroke-miterlimit:10;}.cls-4{fill:#fff;}</style></defs><title>Asset 4</title><g id="Layer_2" data-name="Layer 2"><g id="Layer_1-2" data-name="Layer 1"><circle class="cls-1" cx="27" cy="26.5" r="26.5"/><line class="cls-2" x1="14.24" y1="40.11" x2="6.1" y2="20.12"/><line class="cls-2" x1="18.33" y1="8.85" x2="36.45" y2="16.89"/><circle class="cls-3" cx="6" cy="8.5" r="5.5"/><path class="cls-4" d="M60.36,44.09V40.32a2.62,2.62,0,0,0-2.62-2.62H56.3a2.59,2.59,0,0,1-2.4-1.61h0a2.62,2.62,0,0,1,.57-2.85l1-1a2.61,2.61,0,0,0,0-3.69h0l-2-2a2.62,2.62,0,0,0-3.7,0h0l-1,1a2.64,2.64,0,0,1-2.85.57h0a2.61,2.61,0,0,1-1.61-2.4V24.32a2.61,2.61,0,0,0-2.61-2.62H38a2.6,2.6,0,0,0-2.6,2.6h0v1.45a2.61,2.61,0,0,1-1.62,2.41h0a2.63,2.63,0,0,1-2.84-.57l-1-1a2.6,2.6,0,0,0-3.67,0h0l-2,2a2.59,2.59,0,0,0,0,3.66h0l1,1a2.61,2.61,0,0,1,.6,2.76l0,.09a2.47,2.47,0,0,1-2.31,1.6H22a2.6,2.6,0,0,0-2.6,2.6h0v3.8A2.59,2.59,0,0,0,22,46.7h1.47a2.57,2.57,0,0,1,2.37,1.58l0,.06a2.52,2.52,0,0,1-.55,2.79l-1.06,1a2.59,2.59,0,0,0,0,3.65h0l2,2a2.59,2.59,0,0,0,3.66,0h0l1-1a2.61,2.61,0,0,1,2.84-.57h0a2.61,2.61,0,0,1,1.62,2.41V60.1A2.59,2.59,0,0,0,38,62.7h3.78a2.61,2.61,0,0,0,2.62-2.61h0V58.66A2.62,2.62,0,0,1,46,56.24h0a2.59,2.59,0,0,1,2.82.57l1,1a2.61,2.61,0,0,0,3.69,0h0l2-2a2.62,2.62,0,0,0,0-3.7h0l-1-1a2.62,2.62,0,0,1-.57-2.85h0a2.59,2.59,0,0,1,2.4-1.6h1.44a2.63,2.63,0,0,0,2.62-2.61Z"/><circle class="cls-3" cx="39.98" cy="42.31" r="6.48"/></g></g></svg>