<svg xmlns="http://www.w3.org/2000/svg" viewBox="0 0 57.99 62.76"><defs><style>.cls-1{fill:#2f9fdf;}.cls-2,.cls-4{fill:#fff;}.cls-2,.cls-3,.cls-4,.cls-5{stroke:#000;}.cls-2,.cls-3,.cls-5{stroke-linecap:round;stroke-linejoin:round;}.cls-4{stroke-miterlimit:10;}.cls-5{fill:none;}</style></defs><title>Asset 2</title><g id="Layer_2" data-name="Layer 2"><g id="Layer_1-2" data-name="Layer 1"><ellipse class="cls-1" cx="27" cy="31.86" rx="27" ry="26.88"/><path class="cls-2" d="M57,12.48A9,9,0,1,1,51.46,1h0l.07,0A9,9,0,0,1,57,12.48Z"/><path class="cls-2" d="M36.13,20.28a9.44,9.44,0,1,1-5.78-12l.07,0A9.45,9.45,0,0,1,36.13,20.28Z"/><path class="cls-2" d="M24.49,8.24a1.77,1.77,0,0,1,0,.23,8,8,0,0,1-6.89,7.89,8.27,8.27,0,0,1-1.11.07,8,8,0,1,1,8-8.19Z"/><path class="cls-2" d="M30.5,58.48a4,4,0,1,1-3.78-4.21h0A4,4,0,0,1,30.5,58.48Z"/><polygon class="cls-3" points="20.38 41.81 20.38 50.42 32.38 50.42 32.38 42.2 32.38 41.42 32.38 41.42 20.38 41.42 20.38 41.81"/><path class="cls-4" d="M47.19,25.75a2,2,0,0,0-1.46-3.33H7.26a2,2,0,0,0-2,2,2,2,0,0,0,.54,1.35L11,31.31h0l.56.6,8.94,9.52H32.45l9.24-9.82Z"/><line class="cls-5" x1="13.38" y1="33.42" x2="40.38" y2="33.42"/></g></g></svg>