<svg xmlns="http://www.w3.org/2000/svg" viewBox="0 0 62.28 63.53"><defs><style>.cls-1{fill:#2f9fdf;}.cls-2,.cls-3{fill:#fff;}.cls-2,.cls-4,.cls-5{stroke:#000;stroke-linecap:round;stroke-linejoin:round;}.cls-4{fill:none;}</style></defs><title>Asset 5</title><g id="Layer_2" data-name="Layer 2"><g id="Layer_1-2" data-name="Layer 1"><circle class="cls-1" cx="28" cy="31" r="26"/><path class="cls-2" d="M12.62,21.8a6.78,6.78,0,1,1,4.44,8.78"/><path class="cls-2" d="M37.5,5.5a5,5,0,1,1-5-5A5,5,0,0,1,37.5,5.5Z"/><path class="cls-2" d="M17.5,10A8.5,8.5,0,1,1,9,1.5,8.5,8.5,0,0,1,17.5,10Z"/><path class="cls-2" d="M11.24,21.84A7.51,7.51,0,0,1,16.51,29a7,7,0,0,1-.16,1.51,7.5,7.5,0,1,1-5.84-8.86C10.76,21.7,11,21.77,11.24,21.84Z"/><path class="cls-3" d="M56.92,34.89A16.47,16.47,0,0,1,33.64,58.18l-11-11L30.9,39,41.16,49.28A4.84,4.84,0,0,0,48,42.43L37.74,32.15,46,23.94Z"/><path class="cls-4" d="M37.74,32.15,48,42.43a4.84,4.84,0,0,1-6.83,6.87l0,0L30.9,39"/><path class="cls-4" d="M22.67,47.22l11,11A16.47,16.47,0,1,0,57,35l-.07-.07L46,23.94"/><rect class="cls-5" x="33.64" y="22.26" width="11.61" height="6.78" transform="translate(-6.58 35.41) rotate(-45)"/><rect class="cls-5" x="18.57" y="37.33" width="11.62" height="6.78" transform="translate(-21.65 29.17) rotate(-45)"/></g></g></svg>