<svg xmlns="http://www.w3.org/2000/svg" viewBox="0 0 58.45 62.8"><defs><style>.cls-1{fill:#2f9fdf;}.cls-2,.cls-4{fill:#fff;}.cls-3{fill:none;}.cls-3,.cls-4,.cls-5{stroke:#000;stroke-linecap:round;stroke-linejoin:round;}</style></defs><title>Asset 1</title><g id="Layer_2" data-name="Layer 2"><g id="Layer_1-2" data-name="Layer 1"><circle class="cls-1" cx="27" cy="35.8" r="27"/><path class="cls-2" d="M14.45,16.7V4a4,4,0,0,1,4-4h27V12h12V43a4,4,0,0,1-4,4h-27l-1.3.31A12,12,0,0,0,14.38,38l.07-1Z"/><path d="M57.45,11.14V12h-12V0h.86a2,2,0,0,1,1.41.59l9.14,9.14A2,2,0,0,1,57.45,11.14Z"/><polyline class="cls-3" points="57.95 12.5 45.95 12.5 45.95 0.5"/><path class="cls-3" d="M15,37.5V4.5a4,4,0,0,1,4-4H46.81a2,2,0,0,1,1.41.59l9.14,9.14A2,2,0,0,1,58,11.64V43.5a4,4,0,0,1-4,4H27"/><line class="cls-3" x1="22.95" y1="32.5" x2="32.95" y2="32.5"/><path class="cls-4" d="M25.2,47.61a12.12,12.12,0,0,1,.3,2.69,12,12,0,1,1-12-12c.31,0,.62,0,.93,0A12,12,0,0,1,25.2,47.61Z"/><line class="cls-3" x1="22.95" y1="26.5" x2="48.95" y2="26.5"/><path class="cls-3" d="M1.27,20.63l1.51-2.29a2.43,2.43,0,0,1,3.37-.68,2.47,2.47,0,0,1,.51.46l1.08,1.29a2.43,2.43,0,0,0,3.41.31h0a3,3,0,0,0,.31-.31l1.28-1.54a2.42,2.42,0,0,1,3.41-.31,1.94,1.94,0,0,1,.32.32l1.25,1.51c1,1.17,2.88,2.24,5.21-1.26a2.37,2.37,0,0,1,3.73,0l1.08,1.29a2.43,2.43,0,0,0,3.41.31h0a3,3,0,0,0,.31-.31l1.28-1.54a2.43,2.43,0,0,1,3.42-.31,2.34,2.34,0,0,1,.31.32l1.25,1.51"/><circle class="cls-5" cx="13.63" cy="46.86" r="3.57"/><path class="cls-5" d="M13.5,62.3a11.93,11.93,0,0,0,8.07-3.14c0-.22,0-.44-.06-.66-.74-4.14-3.87-7.25-7.61-7.25-3.92,0-7.15,3.4-7.69,7.8,0,.26,0,.5,0,.75A11.93,11.93,0,0,0,13.5,62.3Z"/></g></g></svg>