<svg xmlns="http://www.w3.org/2000/svg" viewBox="0 0 63 63.2"><defs><style>.cls-1{fill:#2f9fdf;}.cls-2{fill:none;}.cls-2,.cls-4,.cls-5{stroke:#000;stroke-linecap:round;stroke-linejoin:round;}.cls-3{fill:#050e1f;}.cls-4{fill:#fff;}</style></defs><title>Asset 3</title><g id="Layer_2" data-name="Layer 2"><g id="Layer_1-2" data-name="Layer 1"><circle class="cls-1" cx="38.93" cy="23.5" r="23.5"/><line class="cls-2" x1="11.03" y1="19.83" x2="11.03" y2="19.83"/><path class="cls-2" d="M28.5,9.7h17a6,6,0,0,1,6,6v36a6,6,0,0,1-6,6h-34v-34"/><line class="cls-2" x1="22.5" y1="9.7" x2="24.5" y2="9.7"/><path class="cls-3" d="M10,16,4.84,10.87a1.47,1.47,0,0,1,0-2.07L10,3.64a1.47,1.47,0,0,1,2.07,0L17.23,8.8a1.45,1.45,0,0,1,0,2.06L12.07,16A1.47,1.47,0,0,1,10,16Z"/><path class="cls-4" d="M21.5,40.7H2.5a2,2,0,0,1-2-2v-8a2,2,0,0,1,2-2h19a2,2,0,0,1,2,2v8A2,2,0,0,1,21.5,40.7Z"/><path class="cls-4" d="M60.5,30.7h-19a2,2,0,0,1-2-2v-8a2,2,0,0,1,2-2h19a2,2,0,0,1,2,2v8A2,2,0,0,1,60.5,30.7Z"/><rect class="cls-5" x="6.5" y="52.7" width="10" height="10"/></g></g></svg>