<?xml version="1.0" encoding="utf-8"?>
<!-- Generator: Adobe Illustrator 23.0.0, SVG Export Plug-In . SVG Version: 6.00 Build 0)  -->
<svg version="1.1" id="Layer_1" xmlns="http://www.w3.org/2000/svg" xmlns:xlink="http://www.w3.org/1999/xlink" x="0px" y="0px"
	 viewBox="0 0 1313.1 425" style="enable-background:new 0 0 1313.1 425;" xml:space="preserve">
<style type="text/css">
	.st0{clip-path:url(#SVGID_2_);}
	.st1{fill:#FFFFFF;}
</style>
<title>Asset 2CEYOND</title>
<g>
	<g id="Layer_1-2">
		<g id="_Clip_Group_">
			<g>
				<defs>
					<rect id="SVGID_1_" x="-106.3" y="-106.3" width="1525.6" height="637.6"/>
				</defs>
				<clipPath id="SVGID_2_">
					<use xlink:href="#SVGID_1_"  style="overflow:visible;"/>
				</clipPath>
				<g class="st0">
					<g id="_Group_">
						<path id="_Compound_Path_" class="st1" d="M841.7,144.5l-21.3,19.6c-2.1,1.9-2.4,5-0.7,7.3c8.9,12,13.7,26.5,13.8,41.5
							c0,38.3-31.6,69.5-69.8,69.5c-38.4-0.1-69.4-31.2-69.5-69.5c0-38.3,31.3-70.1,69.5-70.1c11,0,21.9,2.7,31.7,7.8
							c1.5,0.8,3.3,0.2,4.1-1.2l15.2-27.1c1.5-2.7,0.5-6-2.1-7.5c-0.1,0-0.2-0.1-0.2-0.1c-15.3-7.6-32.2-11.4-49.2-11.3
							c-59.7,0.3-108.8,50.8-108.4,110.5c0.1,59.8,48.7,108.2,108.5,108.1c0.2,0,0.3,0,0.5,0c60.7,0,109.3-48.3,109.3-109
							c0.1-24.5-8.1-48.3-23.1-67.7c-1.8-2.4-5.3-2.9-7.7-1C841.9,144.2,841.8,144.3,841.7,144.5z"/>
						<path id="_Compound_Path_2" class="st1" d="M211.9,208.9c28.5-13.4,66.8-49.8,66.8-96.6C278.7,48.6,222.9,0,150.6,0h-139
							C5.2,0,0.1,5.2,0.1,11.5l0,0v402c0,6.4,5.2,11.5,11.5,11.5h147c74.1,0,132.4-49.2,132.4-117.2
							C290.9,252,244.1,219.2,211.9,208.9z M250.2,292.4c-20.6,20-46.8,29.5-73.8,29.5c-60.7,0-109.6-48.3-109.6-109
							c-0.1-60.4,48.7-109.5,109.1-109.6c0.2,0,0.3,0,0.5,0c30.7,0,52.8,9.7,73.5,28.2c2.4,2,2.8,5.5,0.8,7.9
							c-0.2,0.2-0.3,0.4-0.5,0.6l-18.5,19.1c-2.1,2.4-5.2,2.4-7.6,0c-12.9-11.4-29.5-17.7-46.8-17.9c-38.9,0-67.7,32.5-67.7,70.7
							c0,38,29.1,70.1,68,70.1c18.2,0,33.7-7,46.5-17.3c2.1-2,5.4-2,7.6,0l18.8,19.4C252.9,286.3,252.3,290.3,250.2,292.4z"/>
						<path id="_Compound_Path_3" class="st1" d="M318.2,112c0-3.2,2.6-5.8,5.8-5.8h123.6c3.2,0,5.8,2.6,5.8,5.8c0,0,0,0,0,0v24.9
							c0,3.2-2.6,5.8-5.8,5.8l0,0h-89.9v49.8h75c3.1,0.1,5.6,2.6,5.8,5.8v25.2c0,3.2-2.6,5.8-5.8,5.8c0,0,0,0,0,0h-75v53.1h89.9
							c3.2,0,5.8,2.6,5.8,5.8l0,0V313c0,3.2-2.6,5.8-5.8,5.8l0,0H324c-3.2,0-5.8-2.6-5.8-5.8V112z"/>
						<path id="_Compound_Path_4" class="st1" d="M543.5,216.5l-69.2-101.4c-1.8-2.6-1.1-6.1,1.4-7.8c1-0.7,2.2-1,3.4-1h31
							c2,0.1,3.8,1.1,4.9,2.7l48.6,69.8l48.6-69.8c1.1-1.7,2.9-2.7,4.9-2.7h31.3c3.1-0.1,5.7,2.3,5.9,5.4c0.1,1.2-0.3,2.4-1,3.4
							L583,216.2V313c-0.1,3.1-2.6,5.6-5.8,5.8h-28c-3.2,0-5.8-2.6-5.8-5.8c0,0,0,0,0,0V216.5z"/>
						<path id="_Compound_Path_5" class="st1" d="M906.6,108.7c0.1-3.1,2.7-5.5,5.8-5.5h7.6l126.3,134.2h0.3V112
							c0-3.2,2.6-5.8,5.8-5.8l0,0h27.9c3.1,0.1,5.7,2.6,5.8,5.8v204.3c-0.1,3.1-2.7,5.5-5.8,5.5h-7.3L946,182.5h-0.3V313
							c0,3.2-2.6,5.8-5.8,5.8l0,0h-27.6c-3.1-0.1-5.6-2.6-5.8-5.8L906.6,108.7z"/>
						<path id="_Compound_Path_6" class="st1" d="M1129.1,112c0-3.1,2.4-5.6,5.5-5.8h72c58.6,0,106.6,47.7,106.6,106
							c-0.1,58.8-47.7,106.5-106.6,106.6h-72c-3.1-0.1-5.5-2.7-5.5-5.8V112z M1202.9,281.7c39.5,0,68.3-29.8,68.3-69.5
							c0-39.5-28.8-69.2-68.3-69.2h-34.6v138.8H1202.9z"/>
					</g>
				</g>
			</g>
		</g>
	</g>
</g>
</svg>
