<?xml version="1.0" encoding="utf-8"?>
<!-- Generator: Adobe Illustrator 23.0.0, SVG Export Plug-In . SVG Version: 6.00 Build 0)  -->
<svg version="1.1" id="Layer_1" xmlns="http://www.w3.org/2000/svg" xmlns:xlink="http://www.w3.org/1999/xlink" x="0px" y="0px"
	 viewBox="0 0 1313.1 425" style="enable-background:new 0 0 1313.1 425;" xml:space="preserve">
<path id="_Compound_Path_" d="M841.6,144.3l-21.3,19.6c-2.1,1.9-2.4,5-0.7,7.3c8.9,12,13.7,26.5,13.8,41.5
	c0,38.3-31.6,69.5-69.8,69.5c-38.4-0.1-69.4-31.2-69.5-69.5c0-38.3,31.3-70.1,69.5-70.1c11,0,21.9,2.7,31.7,7.8
	c1.5,0.8,3.3,0.2,4.1-1.2l15.2-27.1c1.5-2.7,0.5-6-2.1-7.5c-0.1,0-0.2-0.1-0.2-0.1c-15.3-7.6-32.2-11.4-49.2-11.3
	c-59.7,0.3-108.8,50.8-108.4,110.5c0.1,59.8,48.7,108.2,108.5,108.1c0.2,0,0.3,0,0.5,0c60.7,0,109.3-48.3,109.3-109
	c0.1-24.5-8.1-48.3-23.1-67.7c-1.8-2.4-5.3-2.9-7.7-1C841.8,144,841.7,144.2,841.6,144.3z"/>
<path id="_Compound_Path_2" d="M211.9,208.7c28.5-13.4,66.8-49.8,66.8-96.6c0-63.8-55.9-112.3-128.1-112.3h-139C5.2-0.2,0,5,0,11.4
	l0,0v402c0,6.4,5.2,11.5,11.5,11.5h147c74.1,0,132.4-49.2,132.4-117.2C290.8,251.8,244,219,211.9,208.7z M250.1,292.2
	c-20.6,20-46.8,29.5-73.8,29.5c-60.7,0-109.6-48.3-109.6-109c-0.1-60.4,48.7-109.5,109.1-109.6c0.2,0,0.3,0,0.5,0
	c30.7,0,52.8,9.7,73.5,28.2c2.4,2,2.8,5.5,0.8,7.9c-0.2,0.2-0.3,0.4-0.5,0.6l-18.5,19.1c-2.1,2.4-5.2,2.4-7.6,0
	c-12.9-11.4-29.5-17.7-46.8-17.9c-38.9,0-67.7,32.5-67.7,70.7c0,38,29.2,70.1,68,70.1c18.2,0,33.7-7,46.5-17.3c2.1-2,5.4-2,7.6,0
	l18.8,19.4C252.8,286.1,252.2,290.1,250.1,292.2z"/>
<path id="_Compound_Path_3" d="M318.1,111.8c0-3.2,2.6-5.8,5.8-5.8h123.6c3.2,0,5.8,2.6,5.8,5.8c0,0,0,0,0,0v24.9
	c0,3.2-2.6,5.8-5.8,5.8l0,0h-89.9v49.8h75c3.1,0.1,5.6,2.6,5.8,5.8v25.2c0,3.2-2.6,5.8-5.8,5.8c0,0,0,0,0,0h-75v53.1h89.9
	c3.2,0,5.8,2.6,5.8,5.8l0,0v24.9c0,3.2-2.6,5.8-5.8,5.8l0,0H323.9c-3.2,0-5.8-2.6-5.8-5.8V111.8z"/>
<path id="_Compound_Path_4" d="M543.4,216.3l-69.2-101.4c-1.8-2.6-1.1-6.1,1.4-7.8c1-0.7,2.2-1,3.4-1h31c2,0.1,3.8,1.1,4.9,2.7
	l48.6,69.8l48.6-69.8c1.1-1.7,2.9-2.7,4.9-2.7h31.3c3.1-0.1,5.7,2.3,5.9,5.4c0.1,1.2-0.3,2.4-1,3.4L582.9,216v96.9
	c-0.1,3.1-2.6,5.6-5.8,5.8h-28c-3.2,0-5.8-2.6-5.8-5.8c0,0,0,0,0,0V216.3z"/>
<path id="_Compound_Path_5" d="M906.5,108.6c0.1-3.1,2.7-5.5,5.8-5.5h7.6l126.3,134.2h0.3V111.8c0-3.2,2.6-5.8,5.8-5.8l0,0h27.9
	c3.1,0.1,5.7,2.6,5.8,5.8v204.3c-0.1,3.1-2.7,5.5-5.8,5.5h-7.3L946,182.3h-0.3v130.6c0,3.2-2.6,5.8-5.8,5.8l0,0h-27.6
	c-3.1-0.1-5.6-2.6-5.8-5.8L906.5,108.6z"/>
<path id="_Compound_Path_6" d="M1129,111.8c0-3.1,2.4-5.6,5.5-5.8h72c58.6,0,106.6,47.7,106.6,106c-0.1,58.8-47.7,106.5-106.6,106.6
	h-72c-3.1-0.1-5.5-2.7-5.5-5.8V111.8z M1202.8,281.6c39.5,0,68.3-29.8,68.3-69.5c0-39.5-28.8-69.2-68.3-69.2h-34.6v138.8H1202.8z"/>
</svg>
