<?xml version="1.0" encoding="UTF-8"?>
<svg width="39px" height="39px" viewBox="0 0 39 39" version="1.1" xmlns="http://www.w3.org/2000/svg" xmlns:xlink="http://www.w3.org/1999/xlink">
    <!-- Generator: Sketch 52.6 (67491) - http://www.bohemiancoding.com/sketch -->
    <title>hearts</title>
    <desc>Created with Sketch.</desc>
    <g id="Page-1" stroke="none" stroke-width="1" fill="none" fill-rule="evenodd">
        <g id="Homepage" transform="translate(-213.000000, -2229.000000)">
            <g id="Group-4" transform="translate(213.000000, 2219.000000)">
                <g id="hearts" transform="translate(0.000000, 10.000000)">
                    <path d="M34.2931034,6.72413793 C30.9310345,6.72413793 29.9270104,9.12519361 28.9137931,10.0862069 C27.9005758,9.12519361 26.8965517,6.72413793 23.5344828,6.72413793 C20.4137342,6.72413793 18.8275862,10.3275273 18.8275862,13.4482759 C18.8275862,18.8275862 28.9137931,24.8793103 28.9137931,24.8793103 C28.9137931,24.8793103 39,18.8275862 39,13.4482759 C39,10.3275273 37.413852,6.72413793 34.2931034,6.72413793 Z" id="Path" fill="#287AAE"></path>
                    <path d="M15.4655172,0 C12.1034483,0 11.0994242,2.40105568 10.0862069,3.36206897 C9.07298959,2.40105568 8.06896552,0 4.70689655,0 C1.58614799,0 0,3.60338937 0,6.72413793 C0,12.1034483 10.0862069,18.1551724 10.0862069,18.1551724 C10.0862069,18.1551724 20.1724138,12.1034483 20.1724138,6.72413793 C20.1724138,3.60338937 18.5862658,0 15.4655172,0 Z" id="Path" fill="#2FA0E1"></path>
                    <path d="M24.8793103,20.8448276 C21.5172414,20.8448276 20.5132173,23.2458833 19.5,24.2068966 C18.4867827,23.2458833 17.4827586,20.8448276 14.1206897,20.8448276 C10.9999411,20.8448276 9.4137931,24.448217 9.4137931,27.5689655 C9.4137931,32.9482759 19.5,39 19.5,39 C19.5,39 29.5862069,32.9482759 29.5862069,27.5689655 C29.5862069,24.448217 28.0000589,20.8448276 24.8793103,20.8448276 Z" id="Path" fill="#215177"></path>
                </g>
            </g>
        </g>
    </g>
</svg>