<?xml version="1.0" encoding="UTF-8"?>
<svg width="35px" height="23px" viewBox="0 0 35 23" version="1.1" xmlns="http://www.w3.org/2000/svg" xmlns:xlink="http://www.w3.org/1999/xlink">
    <!-- Generator: Sketch 52.6 (67491) - http://www.bohemiancoding.com/sketch -->
    <title>laravel-icon</title>
    <desc>Created with Sketch.</desc>
    <g id="Page-1" stroke="none" stroke-width="1" fill="none" fill-rule="evenodd" opacity="0.3">
        <g id="Homepage" transform="translate(-763.000000, -1637.000000)" fill="#2FA0E1" fill-rule="nonzero">
            <g id="service_item-copy" transform="translate(545.000000, 1342.000000)">
                <g id="Group-2" transform="translate(181.000000, 295.000000)">
                    <g id="laravel-icon" transform="translate(37.000000, 0.000000)">
                        <path d="M21.2643023,22.8834318 C21.0787,22.883782 20.9066006,22.7886674 20.8112558,22.6330455 L16.8236977,16.1329318 L9.36581395,18.1140682 C9.13226442,18.1689852 8.89027429,18.0625646 8.77744186,17.8553182 L0.0625813953,1.84731818 C-0.0191420549,1.69848331 -0.0209708137,1.51994146 0.0576876111,1.36953766 C0.136346036,1.21913387 0.285486914,1.11599831 0.456790698,1.09354545 L7.85583721,0.121272727 C8.06475773,0.0930376863 8.27077629,0.189284259 8.37948837,0.365909091 L17.3120465,14.9343182 L27.692,12.1758864 L24.2313023,7.39815909 C24.1294561,7.26039466 24.1037358,7.08238811 24.1625667,6.92245058 C24.2213977,6.76251304 24.3572002,6.64125065 24.5254884,6.59838636 L29.3822326,5.47661364 C29.5801351,5.43052667 29.787505,5.4999102 29.9149767,5.65486364 L34.1175581,10.7775909 C34.2289871,10.9131648 34.2628648,11.094545 34.2076328,11.2598485 C34.1524009,11.425152 34.0155225,11.5520424 33.8436977,11.5972273 L29.4293023,12.7733636 L33.2933023,18.0947273 C33.3895746,18.2267852 33.4165697,18.395447 33.366159,18.5499271 C33.3157484,18.7044072 33.193822,18.8266562 33.037093,18.8798636 L21.4327907,22.8463182 C21.3789579,22.865819 21.3222255,22.8765897 21.2648372,22.8782045 L21.2643023,22.8834318 Z M17.8795581,15.8511818 L21.4937674,21.7412727 L32.0266977,18.1375909 L28.3477674,13.06975 L17.8795581,15.8511818 Z M1.34790698,2.00831818 L9.50327907,17.0105909 L16.2722326,15.2160682 L7.65204651,1.18920455 L1.34790698,2.00831818 Z M25.5513953,7.42690909 L28.7885116,11.8878636 L32.8145814,10.8178409 L29.3121628,6.55552273 L25.5513953,7.42690909 Z" id="Shape"></path>
                    </g>
                </g>
            </g>
        </g>
    </g>
</svg>