<?xml version="1.0" encoding="UTF-8"?>
<svg width="26px" height="23px" viewBox="0 0 26 23" version="1.1" xmlns="http://www.w3.org/2000/svg" xmlns:xlink="http://www.w3.org/1999/xlink">
    <!-- Generator: Sketch 52.6 (67491) - http://www.bohemiancoding.com/sketch -->
    <title>Shape</title>
    <desc>Created with Sketch.</desc>
    <g id="Page-1" stroke="none" stroke-width="1" fill="none" fill-rule="evenodd" opacity="0.3">
        <g id="Homepage" transform="translate(-726.000000, -1637.000000)" fill="#2FA0E1" fill-rule="nonzero">
            <g id="service_item-copy" transform="translate(545.000000, 1342.000000)">
                <g id="Group-2" transform="translate(181.000000, 295.000000)">
                    <g id="react" transform="translate(-0.000000, 0.000000)">
                        <path d="M21.2168829,7.45474842 C20.9422218,7.36033622 20.6653168,7.27293002 20.3861678,7.19252979 C20.4324446,7.00414748 20.475232,6.81494844 20.5145302,6.62493265 C21.1433278,3.56705651 20.7321888,1.10365126 19.3281902,0.292729179 C17.9820732,-0.485047479 15.7804683,0.32590832 13.5569405,2.26430309 C13.3378384,2.45575005 13.1236691,2.65264443 12.9144327,2.85498624 C12.7743608,2.72047885 12.6318356,2.58860149 12.4868571,2.45935419 C10.156542,0.386568158 7.82074049,-0.48681209 6.41821171,0.326504017 C5.07336244,1.10641619 4.67501366,3.4223586 5.2411278,6.32028472 C5.29744976,6.60726784 5.361027,6.89267366 5.43185951,7.17650219 C5.10135512,7.27054349 4.78216,7.37076652 4.4767761,7.4773961 C1.74479122,8.43155497 0,9.92708913 0,11.4782141 C0,13.0803665 1.87292927,14.6873295 4.71864634,15.6615735 C4.94939432,15.7402054 5.18198603,15.8130451 5.41642146,15.8800928 C5.34028585,16.1858084 5.27271446,16.4934498 5.21370732,16.8030169 C4.67398146,19.6506011 5.09550976,21.9116271 6.43682488,22.68674 C7.82222146,23.4869957 10.147398,22.6644295 12.4115854,20.6817509 C12.5905441,20.5250192 12.7700338,20.3592808 12.9500546,20.1845358 C13.176614,20.4035197 13.4091309,20.6160483 13.6476054,20.8221216 C15.840762,22.7126921 18.0067337,23.4761383 19.3469156,22.6989686 C20.7310556,21.8962851 21.1807898,19.4673178 20.5967693,16.5120588 C20.5522278,16.2863387 20.500648,16.0559991 20.4420298,15.8210402 C20.605341,15.7727626 20.7653013,15.7227279 20.9219107,15.670936 C23.8802156,14.6891728 25.804878,13.1017666 25.804878,11.4782253 C25.804878,9.92148058 24.0038995,8.41588706 21.2168829,7.45474842 Z M14.2806439,3.09744576 C16.1857844,1.43645425 17.966321,0.780705355 18.7776151,1.24942819 C19.6416746,1.74870011 19.9777776,3.76191655 19.4348541,6.4020974 C19.3992659,6.57408495 19.3605885,6.74539063 19.318822,6.91601445 C18.1820114,6.65790943 17.0293896,6.47548976 15.868519,6.36995229 C15.2034452,5.41278847 14.4747005,4.50164089 13.6872439,3.6427099 C13.8805037,3.45605851 14.0783037,3.27430379 14.2806439,3.09744576 Z M7.61929415,12.803278 C7.85266,13.2548455 8.09652359,13.7007296 8.35088488,14.1409302 C8.61036976,14.5898452 8.88042341,15.0323724 9.16104585,15.4685118 C8.36230244,15.381687 7.56853556,15.2538375 6.78287951,15.085468 C7.01070293,14.3484459 7.29141512,13.5823921 7.61929415,12.803278 Z M7.61804878,10.2060097 C7.29702488,9.44326034 7.02237122,8.69332402 6.79807073,7.96912628 C7.53434,7.80403982 8.31943659,7.66915402 9.13751854,7.56675051 C8.86368017,7.99460259 8.59998422,8.42873761 8.34643073,8.86915552 C8.09328115,9.30900393 7.85048715,9.754622 7.61804878,10.2060097 Z M8.20402146,11.5047619 C8.54368098,10.796543 8.90954927,10.1018641 9.30162634,9.42072503 L9.30162634,9.42094984 C9.69332944,8.74015547 10.1103998,8.07499158 10.5528376,7.42545817 C11.3202522,7.36733846 12.1071439,7.33690177 12.9025624,7.33690177 C13.7015263,7.33690177 14.4894166,7.36756324 15.2566293,7.42614376 C15.6942949,8.07419359 16.1087363,8.73710581 16.4999532,9.41488047 C16.8931223,10.0940114 17.2639384,10.7854121 17.6124015,11.4890827 C17.2677156,12.1995495 16.898115,12.8970495 16.5035995,13.5815829 L16.5034873,13.5815829 C16.112592,14.2618452 15.6999384,14.9288374 15.2655263,15.5825595 C14.4999068,15.6373635 13.7087068,15.6656197 12.902439,15.6656197 C12.099481,15.6656197 11.3183224,15.6405668 10.5660766,15.5917197 C10.1206246,14.9398634 9.70024439,14.2718409 9.3049361,13.5876522 C8.91177446,12.9075622 8.5447992,12.2132655 8.20401024,11.5047619 L8.20402146,11.5047619 Z M17.4584698,14.1332648 C17.7180145,13.6823192 17.9674616,13.2257576 18.2068112,12.7635799 C18.5347666,13.5060635 18.8240137,14.2651068 19.0733839,15.0376437 C18.2786846,15.2165512 17.4752008,15.3537594 16.6662151,15.4487077 C16.9389839,15.0155356 17.203065,14.5770546 17.4584585,14.1332648 L17.4584698,14.1332648 Z M18.1963434,10.2068077 C17.957869,9.75347932 17.7104301,9.30508133 17.4540268,8.86161376 C17.2017598,8.42508476 16.9401956,7.99415303 16.6693341,7.56881857 C17.4927341,7.67293051 18.281578,7.81135677 19.0222566,7.98079294 C18.7844817,8.73623664 18.5088234,9.47918536 18.1963322,10.2068077 L18.1963434,10.2068077 Z M12.9147805,4.4324567 C13.4515144,5.01860317 13.9583473,5.63153872 14.4333415,6.26892 C13.41728,6.22082223 12.4006426,6.22059369 11.3834293,6.2682344 C11.8848293,5.60593285 12.3983463,4.99064631 12.9147805,4.4324567 Z M6.97050341,1.28225891 C7.83387854,0.781615757 9.74278878,1.49550683 11.7548176,3.28514621 C11.8834044,3.39955354 12.0125746,3.51933339 12.1419693,3.64323817 C11.3499527,4.50200211 10.6156161,5.41240331 9.94378634,6.36845743 C8.78562204,6.47251967 7.63539962,6.65160317 6.50033854,6.90458382 C6.43451739,6.64061932 6.37539805,6.37511874 6.32298049,6.10808209 L6.32298049,6.10819448 C5.83794976,3.62519869 6.16000585,1.75228553 6.97050341,1.28225891 Z M5.71221268,14.816382 C5.49829397,14.7550366 5.28595349,14.6884498 5.07519122,14.6166215 C3.98239023,14.272176 2.96217962,13.7292401 2.0655122,13.0149299 C1.54626153,12.6580448 1.19760885,12.1017854 1.10232829,11.4782141 C1.10232829,10.5369919 2.50325268,9.33628232 4.83973854,8.52021253 C5.13300164,8.41823236 5.42905463,8.32491415 5.72789756,8.24025788 C6.07482737,9.35512479 6.49498004,10.4457853 6.98560488,11.505099 C6.48882005,12.579566 6.06342984,13.6857353 5.71221268,14.816382 Z M11.6861766,19.8502042 C10.8423973,20.6265112 9.86320264,21.2406185 8.79752244,21.6618394 L8.79741024,21.6618394 C8.22948089,21.9341412 7.57437848,21.9588247 6.98763561,21.7300298 C6.17359268,21.2598121 5.83532439,19.4441756 6.29681659,17.0090266 C6.35169495,16.7212417 6.41452422,16.4351465 6.48530439,16.1507411 C7.63174685,16.3974431 8.79357788,16.5659325 9.9627922,16.6550483 C10.6404234,17.6165403 11.3803767,18.5323963 12.1778717,19.3966998 C12.0176646,19.5518655 11.8537662,19.7030336 11.6861766,19.8502042 Z M12.9452639,18.6020188 C12.4227824,18.0371979 11.901681,17.4125263 11.3926741,16.740615 C11.8867141,16.7600968 12.3899691,16.7698602 12.902439,16.7699052 C13.4284546,16.7699052 13.9476974,16.758351 14.4601673,16.7352424 C13.9873681,17.3830137 13.481737,18.0060823 12.9452639,18.6019964 L12.9452639,18.6020188 Z M19.6393971,20.1384649 C19.5912685,20.767367 19.2854566,21.3482674 18.7945678,21.7432475 C17.9813215,22.2148364 16.2421288,21.6018427 14.3666863,19.9850339 C14.1516457,19.7996937 13.9353447,19.6021512 13.7177834,19.3924063 C14.4998113,18.5250998 15.2224597,17.60586 15.8807932,16.6409651 C17.0567527,16.5415748 18.2244946,16.361264 19.3757498,16.1013095 C19.428287,16.3141116 19.4748442,16.5225603 19.5154215,16.7266554 C19.7653881,17.8466758 19.8074135,19.0032245 19.6393971,20.1384874 L19.6393971,20.1384649 Z M20.5752951,14.6227808 L20.5751829,14.6227808 C20.4341424,14.669571 20.2893322,14.7147653 20.1417844,14.758577 C19.7809397,13.6384887 19.344358,12.544323 18.8350702,11.4836765 C19.3250921,10.4372165 19.7446595,9.35907815 20.09096,8.2564878 C20.3548878,8.3331415 20.6111527,8.41384146 20.8580605,8.49902597 C23.2460439,9.32241273 24.7025946,10.5400491 24.7025946,11.4781916 C24.7025946,12.4775671 23.1294507,13.7749368 20.5752951,14.6228033 L20.5752951,14.6227808 Z" id="Shape"></path>
                    </g>
                </g>
            </g>
        </g>
    </g>
</svg>